<mxfile host="app.diagrams.net" modified="2023-10-10T08:17:41.870Z" agent="Mozilla/5.0 (Windows NT 10.0; Win64; x64) AppleWebKit/537.36 (KHTML, like Gecko) Chrome/117.0.0.0 Safari/537.36" etag="q7BXmhy2pc-1AAjbO3cE" version="22.0.4" type="device">
  <diagram name="Страница — 1" id="nJPeMRBX9m33vV_Kvsoa">
    <mxGraphModel dx="1750" dy="2059" grid="1" gridSize="10" guides="1" tooltips="1" connect="1" arrows="1" fold="1" page="1" pageScale="1" pageWidth="827" pageHeight="1169" math="0" shadow="0">
      <root>
        <mxCell id="0" />
        <mxCell id="1" parent="0" />
        <mxCell id="MxC2BdAEAgkzhx6BI11L-1" value="&lt;div style=&quot;line-height: 120%;&quot;&gt;&lt;span style=&quot;background-color: initial;&quot;&gt;&lt;font style=&quot;font-size: 12px;&quot;&gt;shape&lt;/font&gt;&lt;/span&gt;&lt;/div&gt;" style="shape=folder;fontStyle=1;spacingTop=10;tabWidth=40;tabHeight=14;tabPosition=left;html=1;whiteSpace=wrap;align=center;verticalAlign=top;" vertex="1" parent="1">
          <mxGeometry x="90" y="130" width="1680" height="950" as="geometry" />
        </mxCell>
        <mxCell id="MxC2BdAEAgkzhx6BI11L-2" value="Shape" style="swimlane;fontStyle=1;align=center;verticalAlign=top;childLayout=stackLayout;horizontal=1;startSize=26;horizontalStack=0;resizeParent=1;resizeParentMax=0;resizeLast=0;collapsible=1;marginBottom=0;whiteSpace=wrap;html=1;" vertex="1" parent="1">
          <mxGeometry x="130" y="190" width="500" height="192" as="geometry" />
        </mxCell>
        <mxCell id="MxC2BdAEAgkzhx6BI11L-3" value="+ m_id: string" style="text;strokeColor=none;fillColor=none;align=left;verticalAlign=top;spacingLeft=4;spacingRight=4;overflow=hidden;rotatable=0;points=[[0,0.5],[1,0.5]];portConstraint=eastwest;whiteSpace=wrap;html=1;" vertex="1" parent="MxC2BdAEAgkzhx6BI11L-2">
          <mxGeometry y="26" width="500" height="26" as="geometry" />
        </mxCell>
        <mxCell id="MxC2BdAEAgkzhx6BI11L-6" value="+ m_shapeType: shared_ptr&amp;lt;ShapeType&amp;gt;" style="text;strokeColor=none;fillColor=none;align=left;verticalAlign=top;spacingLeft=4;spacingRight=4;overflow=hidden;rotatable=0;points=[[0,0.5],[1,0.5]];portConstraint=eastwest;whiteSpace=wrap;html=1;" vertex="1" parent="MxC2BdAEAgkzhx6BI11L-2">
          <mxGeometry y="52" width="500" height="28" as="geometry" />
        </mxCell>
        <mxCell id="MxC2BdAEAgkzhx6BI11L-4" value="" style="line;strokeWidth=1;fillColor=none;align=left;verticalAlign=middle;spacingTop=-1;spacingLeft=3;spacingRight=3;rotatable=0;labelPosition=right;points=[];portConstraint=eastwest;strokeColor=inherit;" vertex="1" parent="MxC2BdAEAgkzhx6BI11L-2">
          <mxGeometry y="80" width="500" height="8" as="geometry" />
        </mxCell>
        <mxCell id="MxC2BdAEAgkzhx6BI11L-5" value="+ GetId(): string" style="text;strokeColor=none;fillColor=none;align=left;verticalAlign=top;spacingLeft=4;spacingRight=4;overflow=hidden;rotatable=0;points=[[0,0.5],[1,0.5]];portConstraint=eastwest;whiteSpace=wrap;html=1;" vertex="1" parent="MxC2BdAEAgkzhx6BI11L-2">
          <mxGeometry y="88" width="500" height="26" as="geometry" />
        </mxCell>
        <mxCell id="MxC2BdAEAgkzhx6BI11L-10" value="+ GetShapeType: shared_ptr&amp;lt;ShapeType&amp;gt;" style="text;strokeColor=none;fillColor=none;align=left;verticalAlign=top;spacingLeft=4;spacingRight=4;overflow=hidden;rotatable=0;points=[[0,0.5],[1,0.5]];portConstraint=eastwest;whiteSpace=wrap;html=1;" vertex="1" parent="MxC2BdAEAgkzhx6BI11L-2">
          <mxGeometry y="114" width="500" height="26" as="geometry" />
        </mxCell>
        <mxCell id="MxC2BdAEAgkzhx6BI11L-11" value="+ ChangeShape(string shapeId, string shapeTypeStr, shared_ptr&amp;lt;ShapeType&amp;gt; shapeType)" style="text;strokeColor=none;fillColor=none;align=left;verticalAlign=top;spacingLeft=4;spacingRight=4;overflow=hidden;rotatable=0;points=[[0,0.5],[1,0.5]];portConstraint=eastwest;whiteSpace=wrap;html=1;" vertex="1" parent="MxC2BdAEAgkzhx6BI11L-2">
          <mxGeometry y="140" width="500" height="26" as="geometry" />
        </mxCell>
        <mxCell id="MxC2BdAEAgkzhx6BI11L-9" value="+ ToString: string" style="text;strokeColor=none;fillColor=none;align=left;verticalAlign=top;spacingLeft=4;spacingRight=4;overflow=hidden;rotatable=0;points=[[0,0.5],[1,0.5]];portConstraint=eastwest;whiteSpace=wrap;html=1;" vertex="1" parent="MxC2BdAEAgkzhx6BI11L-2">
          <mxGeometry y="166" width="500" height="26" as="geometry" />
        </mxCell>
        <mxCell id="MxC2BdAEAgkzhx6BI11L-12" value="ShapeType" style="swimlane;fontStyle=1;align=center;verticalAlign=top;childLayout=stackLayout;horizontal=1;startSize=26;horizontalStack=0;resizeParent=1;resizeParentMax=0;resizeLast=0;collapsible=1;marginBottom=0;whiteSpace=wrap;html=1;" vertex="1" parent="1">
          <mxGeometry x="760" y="190" width="390" height="294" as="geometry" />
        </mxCell>
        <mxCell id="MxC2BdAEAgkzhx6BI11L-13" value="+ m_color: string" style="text;strokeColor=none;fillColor=none;align=left;verticalAlign=top;spacingLeft=4;spacingRight=4;overflow=hidden;rotatable=0;points=[[0,0.5],[1,0.5]];portConstraint=eastwest;whiteSpace=wrap;html=1;" vertex="1" parent="MxC2BdAEAgkzhx6BI11L-12">
          <mxGeometry y="26" width="390" height="26" as="geometry" />
        </mxCell>
        <mxCell id="MxC2BdAEAgkzhx6BI11L-16" value="+ m_shapeType: string" style="text;strokeColor=none;fillColor=none;align=left;verticalAlign=top;spacingLeft=4;spacingRight=4;overflow=hidden;rotatable=0;points=[[0,0.5],[1,0.5]];portConstraint=eastwest;whiteSpace=wrap;html=1;" vertex="1" parent="MxC2BdAEAgkzhx6BI11L-12">
          <mxGeometry y="52" width="390" height="26" as="geometry" />
        </mxCell>
        <mxCell id="MxC2BdAEAgkzhx6BI11L-14" value="" style="line;strokeWidth=1;fillColor=none;align=left;verticalAlign=middle;spacingTop=-1;spacingLeft=3;spacingRight=3;rotatable=0;labelPosition=right;points=[];portConstraint=eastwest;strokeColor=inherit;" vertex="1" parent="MxC2BdAEAgkzhx6BI11L-12">
          <mxGeometry y="78" width="390" height="8" as="geometry" />
        </mxCell>
        <mxCell id="MxC2BdAEAgkzhx6BI11L-15" value="+ GetType(): string" style="text;strokeColor=none;fillColor=none;align=left;verticalAlign=top;spacingLeft=4;spacingRight=4;overflow=hidden;rotatable=0;points=[[0,0.5],[1,0.5]];portConstraint=eastwest;whiteSpace=wrap;html=1;" vertex="1" parent="MxC2BdAEAgkzhx6BI11L-12">
          <mxGeometry y="86" width="390" height="26" as="geometry" />
        </mxCell>
        <mxCell id="MxC2BdAEAgkzhx6BI11L-17" value="+ GetColor(): string" style="text;strokeColor=none;fillColor=none;align=left;verticalAlign=top;spacingLeft=4;spacingRight=4;overflow=hidden;rotatable=0;points=[[0,0.5],[1,0.5]];portConstraint=eastwest;whiteSpace=wrap;html=1;" vertex="1" parent="MxC2BdAEAgkzhx6BI11L-12">
          <mxGeometry y="112" width="390" height="26" as="geometry" />
        </mxCell>
        <mxCell id="MxC2BdAEAgkzhx6BI11L-18" value="+ ToString(): string" style="text;strokeColor=none;fillColor=none;align=left;verticalAlign=top;spacingLeft=4;spacingRight=4;overflow=hidden;rotatable=0;points=[[0,0.5],[1,0.5]];portConstraint=eastwest;whiteSpace=wrap;html=1;" vertex="1" parent="MxC2BdAEAgkzhx6BI11L-12">
          <mxGeometry y="138" width="390" height="26" as="geometry" />
        </mxCell>
        <mxCell id="MxC2BdAEAgkzhx6BI11L-19" value="+ SetColor(string newColor)&amp;nbsp;" style="text;strokeColor=none;fillColor=none;align=left;verticalAlign=top;spacingLeft=4;spacingRight=4;overflow=hidden;rotatable=0;points=[[0,0.5],[1,0.5]];portConstraint=eastwest;whiteSpace=wrap;html=1;" vertex="1" parent="MxC2BdAEAgkzhx6BI11L-12">
          <mxGeometry y="164" width="390" height="26" as="geometry" />
        </mxCell>
        <mxCell id="MxC2BdAEAgkzhx6BI11L-20" value="+ SetDrawingStrategy(shared_ptr&amp;lt;IDrawingStrategy&amp;gt; drawingStrategy)" style="text;strokeColor=none;fillColor=none;align=left;verticalAlign=top;spacingLeft=4;spacingRight=4;overflow=hidden;rotatable=0;points=[[0,0.5],[1,0.5]];portConstraint=eastwest;whiteSpace=wrap;html=1;" vertex="1" parent="MxC2BdAEAgkzhx6BI11L-12">
          <mxGeometry y="190" width="390" height="26" as="geometry" />
        </mxCell>
        <mxCell id="MxC2BdAEAgkzhx6BI11L-21" value="+ MoveShape(double dx, double dy)" style="text;strokeColor=none;fillColor=none;align=left;verticalAlign=top;spacingLeft=4;spacingRight=4;overflow=hidden;rotatable=0;points=[[0,0.5],[1,0.5]];portConstraint=eastwest;whiteSpace=wrap;html=1;" vertex="1" parent="MxC2BdAEAgkzhx6BI11L-12">
          <mxGeometry y="216" width="390" height="26" as="geometry" />
        </mxCell>
        <mxCell id="MxC2BdAEAgkzhx6BI11L-23" value="+ Draw(СCanvas canvas)" style="text;strokeColor=none;fillColor=none;align=left;verticalAlign=top;spacingLeft=4;spacingRight=4;overflow=hidden;rotatable=0;points=[[0,0.5],[1,0.5]];portConstraint=eastwest;whiteSpace=wrap;html=1;" vertex="1" parent="MxC2BdAEAgkzhx6BI11L-12">
          <mxGeometry y="242" width="390" height="26" as="geometry" />
        </mxCell>
        <mxCell id="MxC2BdAEAgkzhx6BI11L-22" value="+ AppendProperties(ostream strm)" style="text;strokeColor=none;fillColor=none;align=left;verticalAlign=top;spacingLeft=4;spacingRight=4;overflow=hidden;rotatable=0;points=[[0,0.5],[1,0.5]];portConstraint=eastwest;whiteSpace=wrap;html=1;" vertex="1" parent="MxC2BdAEAgkzhx6BI11L-12">
          <mxGeometry y="268" width="390" height="26" as="geometry" />
        </mxCell>
        <mxCell id="MxC2BdAEAgkzhx6BI11L-24" value="&lt;p style=&quot;margin:0px;margin-top:4px;text-align:center;&quot;&gt;&lt;i&gt;&amp;lt;&amp;lt;Interface&amp;gt;&amp;gt;&lt;/i&gt;&lt;br&gt;&lt;b&gt;IDrawingStrategy&lt;/b&gt;&lt;/p&gt;&lt;hr size=&quot;1&quot;&gt;&lt;p style=&quot;margin:0px;margin-left:4px;&quot;&gt;+ Draw(CСanvas canvas, VisualObjectInfo objInfo)&amp;nbsp;&lt;/p&gt;" style="verticalAlign=top;align=left;overflow=fill;fontSize=12;fontFamily=Helvetica;html=1;whiteSpace=wrap;" vertex="1" parent="1">
          <mxGeometry x="1240" y="-190" width="320" height="70" as="geometry" />
        </mxCell>
        <mxCell id="MxC2BdAEAgkzhx6BI11L-25" value="VisualObjectInfo" style="swimlane;fontStyle=1;align=center;verticalAlign=top;childLayout=stackLayout;horizontal=1;startSize=26;horizontalStack=0;resizeParent=1;resizeParentMax=0;resizeLast=0;collapsible=1;marginBottom=0;whiteSpace=wrap;html=1;" vertex="1" parent="1">
          <mxGeometry x="1460" y="-540" width="230" height="190" as="geometry" />
        </mxCell>
        <mxCell id="MxC2BdAEAgkzhx6BI11L-26" value="+ m_color: Color" style="text;strokeColor=none;fillColor=none;align=left;verticalAlign=top;spacingLeft=4;spacingRight=4;overflow=hidden;rotatable=0;points=[[0,0.5],[1,0.5]];portConstraint=eastwest;whiteSpace=wrap;html=1;" vertex="1" parent="MxC2BdAEAgkzhx6BI11L-25">
          <mxGeometry y="26" width="230" height="26" as="geometry" />
        </mxCell>
        <mxCell id="MxC2BdAEAgkzhx6BI11L-29" value="+ m_possibleText: string" style="text;strokeColor=none;fillColor=none;align=left;verticalAlign=top;spacingLeft=4;spacingRight=4;overflow=hidden;rotatable=0;points=[[0,0.5],[1,0.5]];portConstraint=eastwest;whiteSpace=wrap;html=1;" vertex="1" parent="MxC2BdAEAgkzhx6BI11L-25">
          <mxGeometry y="52" width="230" height="26" as="geometry" />
        </mxCell>
        <mxCell id="MxC2BdAEAgkzhx6BI11L-31" value="+ m_bounds: vector&amp;lt;Point&amp;gt;" style="text;strokeColor=none;fillColor=none;align=left;verticalAlign=top;spacingLeft=4;spacingRight=4;overflow=hidden;rotatable=0;points=[[0,0.5],[1,0.5]];portConstraint=eastwest;whiteSpace=wrap;html=1;" vertex="1" parent="MxC2BdAEAgkzhx6BI11L-25">
          <mxGeometry y="78" width="230" height="26" as="geometry" />
        </mxCell>
        <mxCell id="MxC2BdAEAgkzhx6BI11L-27" value="" style="line;strokeWidth=1;fillColor=none;align=left;verticalAlign=middle;spacingTop=-1;spacingLeft=3;spacingRight=3;rotatable=0;labelPosition=right;points=[];portConstraint=eastwest;strokeColor=inherit;" vertex="1" parent="MxC2BdAEAgkzhx6BI11L-25">
          <mxGeometry y="104" width="230" height="8" as="geometry" />
        </mxCell>
        <mxCell id="MxC2BdAEAgkzhx6BI11L-28" value="+ GetColor(): Color" style="text;strokeColor=none;fillColor=none;align=left;verticalAlign=top;spacingLeft=4;spacingRight=4;overflow=hidden;rotatable=0;points=[[0,0.5],[1,0.5]];portConstraint=eastwest;whiteSpace=wrap;html=1;" vertex="1" parent="MxC2BdAEAgkzhx6BI11L-25">
          <mxGeometry y="112" width="230" height="26" as="geometry" />
        </mxCell>
        <mxCell id="MxC2BdAEAgkzhx6BI11L-32" value="+ GetText(): string" style="text;strokeColor=none;fillColor=none;align=left;verticalAlign=top;spacingLeft=4;spacingRight=4;overflow=hidden;rotatable=0;points=[[0,0.5],[1,0.5]];portConstraint=eastwest;whiteSpace=wrap;html=1;" vertex="1" parent="MxC2BdAEAgkzhx6BI11L-25">
          <mxGeometry y="138" width="230" height="26" as="geometry" />
        </mxCell>
        <mxCell id="MxC2BdAEAgkzhx6BI11L-30" value="+ GetBounds: vector&amp;lt;Point&amp;gt;" style="text;strokeColor=none;fillColor=none;align=left;verticalAlign=top;spacingLeft=4;spacingRight=4;overflow=hidden;rotatable=0;points=[[0,0.5],[1,0.5]];portConstraint=eastwest;whiteSpace=wrap;html=1;" vertex="1" parent="MxC2BdAEAgkzhx6BI11L-25">
          <mxGeometry y="164" width="230" height="26" as="geometry" />
        </mxCell>
        <mxCell id="MxC2BdAEAgkzhx6BI11L-33" value="SPoint" style="swimlane;fontStyle=0;childLayout=stackLayout;horizontal=1;startSize=26;fillColor=none;horizontalStack=0;resizeParent=1;resizeParentMax=0;resizeLast=0;collapsible=1;marginBottom=0;whiteSpace=wrap;html=1;" vertex="1" parent="1">
          <mxGeometry x="1815" y="-554" width="140" height="78" as="geometry" />
        </mxCell>
        <mxCell id="MxC2BdAEAgkzhx6BI11L-35" value="+ x: double" style="text;strokeColor=none;fillColor=none;align=left;verticalAlign=top;spacingLeft=4;spacingRight=4;overflow=hidden;rotatable=0;points=[[0,0.5],[1,0.5]];portConstraint=eastwest;whiteSpace=wrap;html=1;" vertex="1" parent="MxC2BdAEAgkzhx6BI11L-33">
          <mxGeometry y="26" width="140" height="26" as="geometry" />
        </mxCell>
        <mxCell id="MxC2BdAEAgkzhx6BI11L-36" value="+ y: double" style="text;strokeColor=none;fillColor=none;align=left;verticalAlign=top;spacingLeft=4;spacingRight=4;overflow=hidden;rotatable=0;points=[[0,0.5],[1,0.5]];portConstraint=eastwest;whiteSpace=wrap;html=1;" vertex="1" parent="MxC2BdAEAgkzhx6BI11L-33">
          <mxGeometry y="52" width="140" height="26" as="geometry" />
        </mxCell>
        <mxCell id="MxC2BdAEAgkzhx6BI11L-37" value="CommandController" style="swimlane;fontStyle=1;align=center;verticalAlign=top;childLayout=stackLayout;horizontal=1;startSize=26;horizontalStack=0;resizeParent=1;resizeParentMax=0;resizeLast=0;collapsible=1;marginBottom=0;whiteSpace=wrap;html=1;" vertex="1" parent="1">
          <mxGeometry x="3380" y="26" width="360" height="164" as="geometry" />
        </mxCell>
        <mxCell id="MxC2BdAEAgkzhx6BI11L-38" value="+ m_input: istream" style="text;strokeColor=none;fillColor=none;align=left;verticalAlign=top;spacingLeft=4;spacingRight=4;overflow=hidden;rotatable=0;points=[[0,0.5],[1,0.5]];portConstraint=eastwest;whiteSpace=wrap;html=1;" vertex="1" parent="MxC2BdAEAgkzhx6BI11L-37">
          <mxGeometry y="26" width="360" height="26" as="geometry" />
        </mxCell>
        <mxCell id="MxC2BdAEAgkzhx6BI11L-41" value="+ m_output: ostream" style="text;strokeColor=none;fillColor=none;align=left;verticalAlign=top;spacingLeft=4;spacingRight=4;overflow=hidden;rotatable=0;points=[[0,0.5],[1,0.5]];portConstraint=eastwest;whiteSpace=wrap;html=1;" vertex="1" parent="MxC2BdAEAgkzhx6BI11L-37">
          <mxGeometry y="52" width="360" height="26" as="geometry" />
        </mxCell>
        <mxCell id="MxC2BdAEAgkzhx6BI11L-42" value="+ m_picture: Picture" style="text;strokeColor=none;fillColor=none;align=left;verticalAlign=top;spacingLeft=4;spacingRight=4;overflow=hidden;rotatable=0;points=[[0,0.5],[1,0.5]];portConstraint=eastwest;whiteSpace=wrap;html=1;" vertex="1" parent="MxC2BdAEAgkzhx6BI11L-37">
          <mxGeometry y="78" width="360" height="26" as="geometry" />
        </mxCell>
        <mxCell id="MxC2BdAEAgkzhx6BI11L-43" value="+ m_actionMap: map&amp;lt;string, function&amp;lt;bool(istream args)&amp;gt;" style="text;strokeColor=none;fillColor=none;align=left;verticalAlign=top;spacingLeft=4;spacingRight=4;overflow=hidden;rotatable=0;points=[[0,0.5],[1,0.5]];portConstraint=eastwest;whiteSpace=wrap;html=1;" vertex="1" parent="MxC2BdAEAgkzhx6BI11L-37">
          <mxGeometry y="104" width="360" height="26" as="geometry" />
        </mxCell>
        <mxCell id="MxC2BdAEAgkzhx6BI11L-39" value="" style="line;strokeWidth=1;fillColor=none;align=left;verticalAlign=middle;spacingTop=-1;spacingLeft=3;spacingRight=3;rotatable=0;labelPosition=right;points=[];portConstraint=eastwest;strokeColor=inherit;" vertex="1" parent="MxC2BdAEAgkzhx6BI11L-37">
          <mxGeometry y="130" width="360" height="8" as="geometry" />
        </mxCell>
        <mxCell id="MxC2BdAEAgkzhx6BI11L-40" value="+ HandleCommand(): bool" style="text;strokeColor=none;fillColor=none;align=left;verticalAlign=top;spacingLeft=4;spacingRight=4;overflow=hidden;rotatable=0;points=[[0,0.5],[1,0.5]];portConstraint=eastwest;whiteSpace=wrap;html=1;" vertex="1" parent="MxC2BdAEAgkzhx6BI11L-37">
          <mxGeometry y="138" width="360" height="26" as="geometry" />
        </mxCell>
        <mxCell id="MxC2BdAEAgkzhx6BI11L-44" value="gfx" style="shape=folder;fontStyle=1;spacingTop=10;tabWidth=40;tabHeight=14;tabPosition=left;html=1;whiteSpace=wrap;verticalAlign=top;" vertex="1" parent="1">
          <mxGeometry x="870" y="-880" width="460" height="240" as="geometry" />
        </mxCell>
        <mxCell id="MxC2BdAEAgkzhx6BI11L-45" value="&lt;p style=&quot;margin:0px;margin-top:4px;text-align:center;&quot;&gt;&lt;i&gt;&amp;lt;&amp;lt;Interface&amp;gt;&amp;gt;&lt;/i&gt;&lt;br&gt;&lt;b&gt;ICanvas&lt;/b&gt;&lt;/p&gt;&lt;hr size=&quot;1&quot;&gt;&lt;p style=&quot;margin:0px;margin-left:4px;&quot;&gt;+ SetColor(Color c)&lt;br&gt;+ MoveTo(double x, double y)&lt;/p&gt;&lt;p style=&quot;margin:0px;margin-left:4px;&quot;&gt;+ LineTo(double x, double y)&lt;br&gt;&lt;/p&gt;&lt;p style=&quot;margin:0px;margin-left:4px;&quot;&gt;+ DrawEllipse(double cx, double cy, double rx, doube ry)&lt;/p&gt;&lt;p style=&quot;margin:0px;margin-left:4px;&quot;&gt;+ DrawText(double left, double top, double fontSize, string text)&lt;/p&gt;" style="verticalAlign=top;align=left;overflow=fill;fontSize=12;fontFamily=Helvetica;html=1;whiteSpace=wrap;" vertex="1" parent="1">
          <mxGeometry x="930" y="-820" width="340" height="140" as="geometry" />
        </mxCell>
        <mxCell id="MxC2BdAEAgkzhx6BI11L-50" value="CCanvas" style="swimlane;fontStyle=1;align=center;verticalAlign=top;childLayout=stackLayout;horizontal=1;startSize=26;horizontalStack=0;resizeParent=1;resizeParentMax=0;resizeLast=0;collapsible=1;marginBottom=0;whiteSpace=wrap;html=1;" vertex="1" parent="1">
          <mxGeometry x="915" y="-600" width="370" height="294" as="geometry" />
        </mxCell>
        <mxCell id="MxC2BdAEAgkzhx6BI11L-51" value="+ m_color: Color" style="text;strokeColor=none;fillColor=none;align=left;verticalAlign=top;spacingLeft=4;spacingRight=4;overflow=hidden;rotatable=0;points=[[0,0.5],[1,0.5]];portConstraint=eastwest;whiteSpace=wrap;html=1;" vertex="1" parent="MxC2BdAEAgkzhx6BI11L-50">
          <mxGeometry y="26" width="370" height="26" as="geometry" />
        </mxCell>
        <mxCell id="MxC2BdAEAgkzhx6BI11L-55" value="+ m_x: double" style="text;strokeColor=none;fillColor=none;align=left;verticalAlign=top;spacingLeft=4;spacingRight=4;overflow=hidden;rotatable=0;points=[[0,0.5],[1,0.5]];portConstraint=eastwest;whiteSpace=wrap;html=1;" vertex="1" parent="MxC2BdAEAgkzhx6BI11L-50">
          <mxGeometry y="52" width="370" height="26" as="geometry" />
        </mxCell>
        <mxCell id="MxC2BdAEAgkzhx6BI11L-54" value="+ m_y: double" style="text;strokeColor=none;fillColor=none;align=left;verticalAlign=top;spacingLeft=4;spacingRight=4;overflow=hidden;rotatable=0;points=[[0,0.5],[1,0.5]];portConstraint=eastwest;whiteSpace=wrap;html=1;" vertex="1" parent="MxC2BdAEAgkzhx6BI11L-50">
          <mxGeometry y="78" width="370" height="26" as="geometry" />
        </mxCell>
        <mxCell id="MxC2BdAEAgkzhx6BI11L-56" value="+ m_window: RenderWindow" style="text;strokeColor=none;fillColor=none;align=left;verticalAlign=top;spacingLeft=4;spacingRight=4;overflow=hidden;rotatable=0;points=[[0,0.5],[1,0.5]];portConstraint=eastwest;whiteSpace=wrap;html=1;" vertex="1" parent="MxC2BdAEAgkzhx6BI11L-50">
          <mxGeometry y="104" width="370" height="26" as="geometry" />
        </mxCell>
        <mxCell id="MxC2BdAEAgkzhx6BI11L-52" value="" style="line;strokeWidth=1;fillColor=none;align=left;verticalAlign=middle;spacingTop=-1;spacingLeft=3;spacingRight=3;rotatable=0;labelPosition=right;points=[];portConstraint=eastwest;strokeColor=inherit;" vertex="1" parent="MxC2BdAEAgkzhx6BI11L-50">
          <mxGeometry y="130" width="370" height="8" as="geometry" />
        </mxCell>
        <mxCell id="MxC2BdAEAgkzhx6BI11L-59" value="+ MoveTo(double newX, double newY)" style="text;strokeColor=none;fillColor=none;align=left;verticalAlign=top;spacingLeft=4;spacingRight=4;overflow=hidden;rotatable=0;points=[[0,0.5],[1,0.5]];portConstraint=eastwest;whiteSpace=wrap;html=1;" vertex="1" parent="MxC2BdAEAgkzhx6BI11L-50">
          <mxGeometry y="138" width="370" height="26" as="geometry" />
        </mxCell>
        <mxCell id="MxC2BdAEAgkzhx6BI11L-58" value="+ LineTo(double x, double y)" style="text;strokeColor=none;fillColor=none;align=left;verticalAlign=top;spacingLeft=4;spacingRight=4;overflow=hidden;rotatable=0;points=[[0,0.5],[1,0.5]];portConstraint=eastwest;whiteSpace=wrap;html=1;" vertex="1" parent="MxC2BdAEAgkzhx6BI11L-50">
          <mxGeometry y="164" width="370" height="26" as="geometry" />
        </mxCell>
        <mxCell id="MxC2BdAEAgkzhx6BI11L-62" value="+ DrawEllipse(double cx, double cy, double rx, double ry)" style="text;strokeColor=none;fillColor=none;align=left;verticalAlign=top;spacingLeft=4;spacingRight=4;overflow=hidden;rotatable=0;points=[[0,0.5],[1,0.5]];portConstraint=eastwest;whiteSpace=wrap;html=1;" vertex="1" parent="MxC2BdAEAgkzhx6BI11L-50">
          <mxGeometry y="190" width="370" height="26" as="geometry" />
        </mxCell>
        <mxCell id="MxC2BdAEAgkzhx6BI11L-60" value="+ DrawText(double left, double top, double fontSize, std::string text)" style="text;strokeColor=none;fillColor=none;align=left;verticalAlign=top;spacingLeft=4;spacingRight=4;overflow=hidden;rotatable=0;points=[[0,0.5],[1,0.5]];portConstraint=eastwest;whiteSpace=wrap;html=1;" vertex="1" parent="MxC2BdAEAgkzhx6BI11L-50">
          <mxGeometry y="216" width="370" height="26" as="geometry" />
        </mxCell>
        <mxCell id="MxC2BdAEAgkzhx6BI11L-63" value="+ GetWindow(): RenderWindow" style="text;strokeColor=none;fillColor=none;align=left;verticalAlign=top;spacingLeft=4;spacingRight=4;overflow=hidden;rotatable=0;points=[[0,0.5],[1,0.5]];portConstraint=eastwest;whiteSpace=wrap;html=1;" vertex="1" parent="MxC2BdAEAgkzhx6BI11L-50">
          <mxGeometry y="242" width="370" height="26" as="geometry" />
        </mxCell>
        <mxCell id="MxC2BdAEAgkzhx6BI11L-53" value="+ SetColor(Color newColor)" style="text;strokeColor=none;fillColor=none;align=left;verticalAlign=top;spacingLeft=4;spacingRight=4;overflow=hidden;rotatable=0;points=[[0,0.5],[1,0.5]];portConstraint=eastwest;whiteSpace=wrap;html=1;" vertex="1" parent="MxC2BdAEAgkzhx6BI11L-50">
          <mxGeometry y="268" width="370" height="26" as="geometry" />
        </mxCell>
        <mxCell id="MxC2BdAEAgkzhx6BI11L-64" value="" style="endArrow=block;dashed=1;endFill=0;endSize=12;html=1;rounded=0;" edge="1" parent="1" source="MxC2BdAEAgkzhx6BI11L-50" target="MxC2BdAEAgkzhx6BI11L-45">
          <mxGeometry width="160" relative="1" as="geometry">
            <mxPoint x="950" y="-350" as="sourcePoint" />
            <mxPoint x="1110" y="-350" as="targetPoint" />
          </mxGeometry>
        </mxCell>
        <mxCell id="MxC2BdAEAgkzhx6BI11L-65" value="Circle" style="swimlane;fontStyle=1;align=center;verticalAlign=top;childLayout=stackLayout;horizontal=1;startSize=26;horizontalStack=0;resizeParent=1;resizeParentMax=0;resizeLast=0;collapsible=1;marginBottom=0;whiteSpace=wrap;html=1;" vertex="1" parent="1">
          <mxGeometry x="1440" y="840" width="230" height="186" as="geometry" />
        </mxCell>
        <mxCell id="MxC2BdAEAgkzhx6BI11L-66" value="+ m_x: double" style="text;strokeColor=none;fillColor=none;align=left;verticalAlign=top;spacingLeft=4;spacingRight=4;overflow=hidden;rotatable=0;points=[[0,0.5],[1,0.5]];portConstraint=eastwest;whiteSpace=wrap;html=1;" vertex="1" parent="MxC2BdAEAgkzhx6BI11L-65">
          <mxGeometry y="26" width="230" height="22" as="geometry" />
        </mxCell>
        <mxCell id="MxC2BdAEAgkzhx6BI11L-69" value="+ m_y: double" style="text;strokeColor=none;fillColor=none;align=left;verticalAlign=top;spacingLeft=4;spacingRight=4;overflow=hidden;rotatable=0;points=[[0,0.5],[1,0.5]];portConstraint=eastwest;whiteSpace=wrap;html=1;" vertex="1" parent="MxC2BdAEAgkzhx6BI11L-65">
          <mxGeometry y="48" width="230" height="26" as="geometry" />
        </mxCell>
        <mxCell id="MxC2BdAEAgkzhx6BI11L-70" value="+ m_r: double" style="text;strokeColor=none;fillColor=none;align=left;verticalAlign=top;spacingLeft=4;spacingRight=4;overflow=hidden;rotatable=0;points=[[0,0.5],[1,0.5]];portConstraint=eastwest;whiteSpace=wrap;html=1;" vertex="1" parent="MxC2BdAEAgkzhx6BI11L-65">
          <mxGeometry y="74" width="230" height="26" as="geometry" />
        </mxCell>
        <mxCell id="MxC2BdAEAgkzhx6BI11L-67" value="" style="line;strokeWidth=1;fillColor=none;align=left;verticalAlign=middle;spacingTop=-1;spacingLeft=3;spacingRight=3;rotatable=0;labelPosition=right;points=[];portConstraint=eastwest;strokeColor=inherit;" vertex="1" parent="MxC2BdAEAgkzhx6BI11L-65">
          <mxGeometry y="100" width="230" height="8" as="geometry" />
        </mxCell>
        <mxCell id="MxC2BdAEAgkzhx6BI11L-71" value="+ Draw(CCanvas canvas)" style="text;strokeColor=none;fillColor=none;align=left;verticalAlign=top;spacingLeft=4;spacingRight=4;overflow=hidden;rotatable=0;points=[[0,0.5],[1,0.5]];portConstraint=eastwest;whiteSpace=wrap;html=1;" vertex="1" parent="MxC2BdAEAgkzhx6BI11L-65">
          <mxGeometry y="108" width="230" height="26" as="geometry" />
        </mxCell>
        <mxCell id="MxC2BdAEAgkzhx6BI11L-68" value="+ AppendProperties(ostream strm)" style="text;strokeColor=none;fillColor=none;align=left;verticalAlign=top;spacingLeft=4;spacingRight=4;overflow=hidden;rotatable=0;points=[[0,0.5],[1,0.5]];portConstraint=eastwest;whiteSpace=wrap;html=1;" vertex="1" parent="MxC2BdAEAgkzhx6BI11L-65">
          <mxGeometry y="134" width="230" height="26" as="geometry" />
        </mxCell>
        <mxCell id="MxC2BdAEAgkzhx6BI11L-72" value="+ MoveShape(double dx, double dy)" style="text;strokeColor=none;fillColor=none;align=left;verticalAlign=top;spacingLeft=4;spacingRight=4;overflow=hidden;rotatable=0;points=[[0,0.5],[1,0.5]];portConstraint=eastwest;whiteSpace=wrap;html=1;" vertex="1" parent="MxC2BdAEAgkzhx6BI11L-65">
          <mxGeometry y="160" width="230" height="26" as="geometry" />
        </mxCell>
        <mxCell id="MxC2BdAEAgkzhx6BI11L-73" value="Extends" style="endArrow=block;endSize=16;endFill=0;html=1;rounded=0;" edge="1" parent="1" source="MxC2BdAEAgkzhx6BI11L-65" target="MxC2BdAEAgkzhx6BI11L-12">
          <mxGeometry width="160" relative="1" as="geometry">
            <mxPoint x="650" y="640" as="sourcePoint" />
            <mxPoint x="810" y="640" as="targetPoint" />
          </mxGeometry>
        </mxCell>
        <mxCell id="MxC2BdAEAgkzhx6BI11L-78" value="EllipseDrawingStrategy" style="swimlane;fontStyle=1;align=center;verticalAlign=top;childLayout=stackLayout;horizontal=1;startSize=26;horizontalStack=0;resizeParent=1;resizeParentMax=0;resizeLast=0;collapsible=1;marginBottom=0;whiteSpace=wrap;html=1;" vertex="1" parent="1">
          <mxGeometry x="1952" y="-120" width="350" height="52" as="geometry" />
        </mxCell>
        <mxCell id="MxC2BdAEAgkzhx6BI11L-81" value="+ Draw(CCanvas canvas, VisualObjectInfo objInfo)" style="text;strokeColor=none;fillColor=none;align=left;verticalAlign=top;spacingLeft=4;spacingRight=4;overflow=hidden;rotatable=0;points=[[0,0.5],[1,0.5]];portConstraint=eastwest;whiteSpace=wrap;html=1;" vertex="1" parent="MxC2BdAEAgkzhx6BI11L-78">
          <mxGeometry y="26" width="350" height="26" as="geometry" />
        </mxCell>
        <mxCell id="MxC2BdAEAgkzhx6BI11L-82" value="" style="endArrow=block;dashed=1;endFill=0;endSize=12;html=1;rounded=0;" edge="1" parent="1" source="MxC2BdAEAgkzhx6BI11L-78" target="MxC2BdAEAgkzhx6BI11L-24">
          <mxGeometry width="160" relative="1" as="geometry">
            <mxPoint x="1390" y="-42" as="sourcePoint" />
            <mxPoint x="1550" y="-42" as="targetPoint" />
          </mxGeometry>
        </mxCell>
        <mxCell id="MxC2BdAEAgkzhx6BI11L-83" value="Line" style="swimlane;fontStyle=1;align=center;verticalAlign=top;childLayout=stackLayout;horizontal=1;startSize=26;horizontalStack=0;resizeParent=1;resizeParentMax=0;resizeLast=0;collapsible=1;marginBottom=0;whiteSpace=wrap;html=1;" vertex="1" parent="1">
          <mxGeometry x="1490" y="520" width="230" height="212" as="geometry" />
        </mxCell>
        <mxCell id="MxC2BdAEAgkzhx6BI11L-84" value="+ m_x1: double" style="text;strokeColor=none;fillColor=none;align=left;verticalAlign=top;spacingLeft=4;spacingRight=4;overflow=hidden;rotatable=0;points=[[0,0.5],[1,0.5]];portConstraint=eastwest;whiteSpace=wrap;html=1;" vertex="1" parent="MxC2BdAEAgkzhx6BI11L-83">
          <mxGeometry y="26" width="230" height="22" as="geometry" />
        </mxCell>
        <mxCell id="MxC2BdAEAgkzhx6BI11L-85" value="+ m_y1: double" style="text;strokeColor=none;fillColor=none;align=left;verticalAlign=top;spacingLeft=4;spacingRight=4;overflow=hidden;rotatable=0;points=[[0,0.5],[1,0.5]];portConstraint=eastwest;whiteSpace=wrap;html=1;" vertex="1" parent="MxC2BdAEAgkzhx6BI11L-83">
          <mxGeometry y="48" width="230" height="26" as="geometry" />
        </mxCell>
        <mxCell id="MxC2BdAEAgkzhx6BI11L-86" value="+ m_x2: double" style="text;strokeColor=none;fillColor=none;align=left;verticalAlign=top;spacingLeft=4;spacingRight=4;overflow=hidden;rotatable=0;points=[[0,0.5],[1,0.5]];portConstraint=eastwest;whiteSpace=wrap;html=1;" vertex="1" parent="MxC2BdAEAgkzhx6BI11L-83">
          <mxGeometry y="74" width="230" height="26" as="geometry" />
        </mxCell>
        <mxCell id="MxC2BdAEAgkzhx6BI11L-91" value="+ m_y2: double" style="text;strokeColor=none;fillColor=none;align=left;verticalAlign=top;spacingLeft=4;spacingRight=4;overflow=hidden;rotatable=0;points=[[0,0.5],[1,0.5]];portConstraint=eastwest;whiteSpace=wrap;html=1;" vertex="1" parent="MxC2BdAEAgkzhx6BI11L-83">
          <mxGeometry y="100" width="230" height="26" as="geometry" />
        </mxCell>
        <mxCell id="MxC2BdAEAgkzhx6BI11L-87" value="" style="line;strokeWidth=1;fillColor=none;align=left;verticalAlign=middle;spacingTop=-1;spacingLeft=3;spacingRight=3;rotatable=0;labelPosition=right;points=[];portConstraint=eastwest;strokeColor=inherit;" vertex="1" parent="MxC2BdAEAgkzhx6BI11L-83">
          <mxGeometry y="126" width="230" height="8" as="geometry" />
        </mxCell>
        <mxCell id="MxC2BdAEAgkzhx6BI11L-88" value="+ Draw(CCanvas canvas)" style="text;strokeColor=none;fillColor=none;align=left;verticalAlign=top;spacingLeft=4;spacingRight=4;overflow=hidden;rotatable=0;points=[[0,0.5],[1,0.5]];portConstraint=eastwest;whiteSpace=wrap;html=1;" vertex="1" parent="MxC2BdAEAgkzhx6BI11L-83">
          <mxGeometry y="134" width="230" height="26" as="geometry" />
        </mxCell>
        <mxCell id="MxC2BdAEAgkzhx6BI11L-89" value="+ AppendProperties(ostream strm)" style="text;strokeColor=none;fillColor=none;align=left;verticalAlign=top;spacingLeft=4;spacingRight=4;overflow=hidden;rotatable=0;points=[[0,0.5],[1,0.5]];portConstraint=eastwest;whiteSpace=wrap;html=1;" vertex="1" parent="MxC2BdAEAgkzhx6BI11L-83">
          <mxGeometry y="160" width="230" height="26" as="geometry" />
        </mxCell>
        <mxCell id="MxC2BdAEAgkzhx6BI11L-90" value="+ MoveShape(double dx, double dy)" style="text;strokeColor=none;fillColor=none;align=left;verticalAlign=top;spacingLeft=4;spacingRight=4;overflow=hidden;rotatable=0;points=[[0,0.5],[1,0.5]];portConstraint=eastwest;whiteSpace=wrap;html=1;" vertex="1" parent="MxC2BdAEAgkzhx6BI11L-83">
          <mxGeometry y="186" width="230" height="26" as="geometry" />
        </mxCell>
        <mxCell id="MxC2BdAEAgkzhx6BI11L-92" value="Extends" style="endArrow=block;endSize=16;endFill=0;html=1;rounded=0;" edge="1" parent="1" source="MxC2BdAEAgkzhx6BI11L-83" target="MxC2BdAEAgkzhx6BI11L-12">
          <mxGeometry width="160" relative="1" as="geometry">
            <mxPoint x="800" y="590" as="sourcePoint" />
            <mxPoint x="960" y="590" as="targetPoint" />
          </mxGeometry>
        </mxCell>
        <mxCell id="MxC2BdAEAgkzhx6BI11L-97" value="LineDrawingStrategy" style="swimlane;fontStyle=1;align=center;verticalAlign=top;childLayout=stackLayout;horizontal=1;startSize=26;horizontalStack=0;resizeParent=1;resizeParentMax=0;resizeLast=0;collapsible=1;marginBottom=0;whiteSpace=wrap;html=1;" vertex="1" parent="1">
          <mxGeometry x="1570" y="-11" width="350" height="52" as="geometry" />
        </mxCell>
        <mxCell id="MxC2BdAEAgkzhx6BI11L-98" value="+ Draw(CCanvas canvas, VisualObjectInfo objInfo)" style="text;strokeColor=none;fillColor=none;align=left;verticalAlign=top;spacingLeft=4;spacingRight=4;overflow=hidden;rotatable=0;points=[[0,0.5],[1,0.5]];portConstraint=eastwest;whiteSpace=wrap;html=1;" vertex="1" parent="MxC2BdAEAgkzhx6BI11L-97">
          <mxGeometry y="26" width="350" height="26" as="geometry" />
        </mxCell>
        <mxCell id="MxC2BdAEAgkzhx6BI11L-99" value="" style="endArrow=block;dashed=1;endFill=0;endSize=12;html=1;rounded=0;" edge="1" parent="1" source="MxC2BdAEAgkzhx6BI11L-97" target="MxC2BdAEAgkzhx6BI11L-24">
          <mxGeometry width="160" relative="1" as="geometry">
            <mxPoint x="1400" y="128" as="sourcePoint" />
            <mxPoint x="1560" y="128" as="targetPoint" />
          </mxGeometry>
        </mxCell>
        <mxCell id="MxC2BdAEAgkzhx6BI11L-100" value="Picture" style="swimlane;fontStyle=1;align=center;verticalAlign=top;childLayout=stackLayout;horizontal=1;startSize=26;horizontalStack=0;resizeParent=1;resizeParentMax=0;resizeLast=0;collapsible=1;marginBottom=0;whiteSpace=wrap;html=1;" vertex="1" parent="1">
          <mxGeometry x="100" y="608" width="460" height="210" as="geometry" />
        </mxCell>
        <mxCell id="MxC2BdAEAgkzhx6BI11L-101" value="+m_shapesVector: vector&amp;lt;shared_ptr&amp;lt;Shape&amp;gt;&amp;gt;&amp;nbsp;" style="text;strokeColor=none;fillColor=none;align=left;verticalAlign=top;spacingLeft=4;spacingRight=4;overflow=hidden;rotatable=0;points=[[0,0.5],[1,0.5]];portConstraint=eastwest;whiteSpace=wrap;html=1;" vertex="1" parent="MxC2BdAEAgkzhx6BI11L-100">
          <mxGeometry y="26" width="460" height="24" as="geometry" />
        </mxCell>
        <mxCell id="MxC2BdAEAgkzhx6BI11L-102" value="" style="line;strokeWidth=1;fillColor=none;align=left;verticalAlign=middle;spacingTop=-1;spacingLeft=3;spacingRight=3;rotatable=0;labelPosition=right;points=[];portConstraint=eastwest;strokeColor=inherit;" vertex="1" parent="MxC2BdAEAgkzhx6BI11L-100">
          <mxGeometry y="50" width="460" height="8" as="geometry" />
        </mxCell>
        <mxCell id="MxC2BdAEAgkzhx6BI11L-103" value="+ AddShape(shared_ptr&amp;lt;Shape&amp;gt; shape)" style="text;strokeColor=none;fillColor=none;align=left;verticalAlign=top;spacingLeft=4;spacingRight=4;overflow=hidden;rotatable=0;points=[[0,0.5],[1,0.5]];portConstraint=eastwest;whiteSpace=wrap;html=1;" vertex="1" parent="MxC2BdAEAgkzhx6BI11L-100">
          <mxGeometry y="58" width="460" height="22" as="geometry" />
        </mxCell>
        <mxCell id="MxC2BdAEAgkzhx6BI11L-104" value="+ DeleteShape(string shapeId, ostream output)" style="text;strokeColor=none;fillColor=none;align=left;verticalAlign=top;spacingLeft=4;spacingRight=4;overflow=hidden;rotatable=0;points=[[0,0.5],[1,0.5]];portConstraint=eastwest;whiteSpace=wrap;html=1;" vertex="1" parent="MxC2BdAEAgkzhx6BI11L-100">
          <mxGeometry y="80" width="460" height="26" as="geometry" />
        </mxCell>
        <mxCell id="MxC2BdAEAgkzhx6BI11L-105" value="+ DrawPicture()" style="text;strokeColor=none;fillColor=none;align=left;verticalAlign=top;spacingLeft=4;spacingRight=4;overflow=hidden;rotatable=0;points=[[0,0.5],[1,0.5]];portConstraint=eastwest;whiteSpace=wrap;html=1;" vertex="1" parent="MxC2BdAEAgkzhx6BI11L-100">
          <mxGeometry y="106" width="460" height="26" as="geometry" />
        </mxCell>
        <mxCell id="MxC2BdAEAgkzhx6BI11L-106" value="+ List(ostream output)" style="text;strokeColor=none;fillColor=none;align=left;verticalAlign=top;spacingLeft=4;spacingRight=4;overflow=hidden;rotatable=0;points=[[0,0.5],[1,0.5]];portConstraint=eastwest;whiteSpace=wrap;html=1;" vertex="1" parent="MxC2BdAEAgkzhx6BI11L-100">
          <mxGeometry y="132" width="460" height="26" as="geometry" />
        </mxCell>
        <mxCell id="MxC2BdAEAgkzhx6BI11L-108" value="+ GetShape(string shapeId, ostream output): shared_ptr&amp;lt;Shape&amp;gt;" style="text;strokeColor=none;fillColor=none;align=left;verticalAlign=top;spacingLeft=4;spacingRight=4;overflow=hidden;rotatable=0;points=[[0,0.5],[1,0.5]];portConstraint=eastwest;whiteSpace=wrap;html=1;" vertex="1" parent="MxC2BdAEAgkzhx6BI11L-100">
          <mxGeometry y="158" width="460" height="26" as="geometry" />
        </mxCell>
        <mxCell id="MxC2BdAEAgkzhx6BI11L-107" value="+ GetAllShapes(): vector&amp;lt;shared_ptr&amp;lt;Shape&amp;gt;&amp;gt;" style="text;strokeColor=none;fillColor=none;align=left;verticalAlign=top;spacingLeft=4;spacingRight=4;overflow=hidden;rotatable=0;points=[[0,0.5],[1,0.5]];portConstraint=eastwest;whiteSpace=wrap;html=1;" vertex="1" parent="MxC2BdAEAgkzhx6BI11L-100">
          <mxGeometry y="184" width="460" height="26" as="geometry" />
        </mxCell>
        <mxCell id="MxC2BdAEAgkzhx6BI11L-109" value="Rectangle" style="swimlane;fontStyle=1;align=center;verticalAlign=top;childLayout=stackLayout;horizontal=1;startSize=26;horizontalStack=0;resizeParent=1;resizeParentMax=0;resizeLast=0;collapsible=1;marginBottom=0;whiteSpace=wrap;html=1;" vertex="1" parent="1">
          <mxGeometry x="570" y="840" width="230" height="212" as="geometry" />
        </mxCell>
        <mxCell id="MxC2BdAEAgkzhx6BI11L-110" value="+ m_left: double" style="text;strokeColor=none;fillColor=none;align=left;verticalAlign=top;spacingLeft=4;spacingRight=4;overflow=hidden;rotatable=0;points=[[0,0.5],[1,0.5]];portConstraint=eastwest;whiteSpace=wrap;html=1;" vertex="1" parent="MxC2BdAEAgkzhx6BI11L-109">
          <mxGeometry y="26" width="230" height="22" as="geometry" />
        </mxCell>
        <mxCell id="MxC2BdAEAgkzhx6BI11L-111" value="+ m_top: double" style="text;strokeColor=none;fillColor=none;align=left;verticalAlign=top;spacingLeft=4;spacingRight=4;overflow=hidden;rotatable=0;points=[[0,0.5],[1,0.5]];portConstraint=eastwest;whiteSpace=wrap;html=1;" vertex="1" parent="MxC2BdAEAgkzhx6BI11L-109">
          <mxGeometry y="48" width="230" height="26" as="geometry" />
        </mxCell>
        <mxCell id="MxC2BdAEAgkzhx6BI11L-112" value="+ m_width: double" style="text;strokeColor=none;fillColor=none;align=left;verticalAlign=top;spacingLeft=4;spacingRight=4;overflow=hidden;rotatable=0;points=[[0,0.5],[1,0.5]];portConstraint=eastwest;whiteSpace=wrap;html=1;" vertex="1" parent="MxC2BdAEAgkzhx6BI11L-109">
          <mxGeometry y="74" width="230" height="26" as="geometry" />
        </mxCell>
        <mxCell id="MxC2BdAEAgkzhx6BI11L-113" value="+ m_height: double" style="text;strokeColor=none;fillColor=none;align=left;verticalAlign=top;spacingLeft=4;spacingRight=4;overflow=hidden;rotatable=0;points=[[0,0.5],[1,0.5]];portConstraint=eastwest;whiteSpace=wrap;html=1;" vertex="1" parent="MxC2BdAEAgkzhx6BI11L-109">
          <mxGeometry y="100" width="230" height="26" as="geometry" />
        </mxCell>
        <mxCell id="MxC2BdAEAgkzhx6BI11L-114" value="" style="line;strokeWidth=1;fillColor=none;align=left;verticalAlign=middle;spacingTop=-1;spacingLeft=3;spacingRight=3;rotatable=0;labelPosition=right;points=[];portConstraint=eastwest;strokeColor=inherit;" vertex="1" parent="MxC2BdAEAgkzhx6BI11L-109">
          <mxGeometry y="126" width="230" height="8" as="geometry" />
        </mxCell>
        <mxCell id="MxC2BdAEAgkzhx6BI11L-115" value="+ Draw(CCanvas canvas)" style="text;strokeColor=none;fillColor=none;align=left;verticalAlign=top;spacingLeft=4;spacingRight=4;overflow=hidden;rotatable=0;points=[[0,0.5],[1,0.5]];portConstraint=eastwest;whiteSpace=wrap;html=1;" vertex="1" parent="MxC2BdAEAgkzhx6BI11L-109">
          <mxGeometry y="134" width="230" height="26" as="geometry" />
        </mxCell>
        <mxCell id="MxC2BdAEAgkzhx6BI11L-116" value="+ AppendProperties(ostream strm)" style="text;strokeColor=none;fillColor=none;align=left;verticalAlign=top;spacingLeft=4;spacingRight=4;overflow=hidden;rotatable=0;points=[[0,0.5],[1,0.5]];portConstraint=eastwest;whiteSpace=wrap;html=1;" vertex="1" parent="MxC2BdAEAgkzhx6BI11L-109">
          <mxGeometry y="160" width="230" height="26" as="geometry" />
        </mxCell>
        <mxCell id="MxC2BdAEAgkzhx6BI11L-117" value="+ MoveShape(double dx, double dy)" style="text;strokeColor=none;fillColor=none;align=left;verticalAlign=top;spacingLeft=4;spacingRight=4;overflow=hidden;rotatable=0;points=[[0,0.5],[1,0.5]];portConstraint=eastwest;whiteSpace=wrap;html=1;" vertex="1" parent="MxC2BdAEAgkzhx6BI11L-109">
          <mxGeometry y="186" width="230" height="26" as="geometry" />
        </mxCell>
        <mxCell id="MxC2BdAEAgkzhx6BI11L-118" value="Extends" style="endArrow=block;endSize=16;endFill=0;html=1;rounded=0;" edge="1" parent="1" source="MxC2BdAEAgkzhx6BI11L-109" target="MxC2BdAEAgkzhx6BI11L-12">
          <mxGeometry width="160" relative="1" as="geometry">
            <mxPoint x="980" y="570" as="sourcePoint" />
            <mxPoint x="1140" y="570" as="targetPoint" />
          </mxGeometry>
        </mxCell>
        <mxCell id="MxC2BdAEAgkzhx6BI11L-128" value="RectangleDrawingStrategy" style="swimlane;fontStyle=1;align=center;verticalAlign=top;childLayout=stackLayout;horizontal=1;startSize=26;horizontalStack=0;resizeParent=1;resizeParentMax=0;resizeLast=0;collapsible=1;marginBottom=0;whiteSpace=wrap;html=1;" vertex="1" parent="1">
          <mxGeometry x="1952" y="-11" width="350" height="52" as="geometry" />
        </mxCell>
        <mxCell id="MxC2BdAEAgkzhx6BI11L-129" value="+ Draw(CCanvas canvas, VisualObjectInfo objInfo)" style="text;strokeColor=none;fillColor=none;align=left;verticalAlign=top;spacingLeft=4;spacingRight=4;overflow=hidden;rotatable=0;points=[[0,0.5],[1,0.5]];portConstraint=eastwest;whiteSpace=wrap;html=1;" vertex="1" parent="MxC2BdAEAgkzhx6BI11L-128">
          <mxGeometry y="26" width="350" height="26" as="geometry" />
        </mxCell>
        <mxCell id="MxC2BdAEAgkzhx6BI11L-132" value="" style="endArrow=block;dashed=1;endFill=0;endSize=12;html=1;rounded=0;" edge="1" parent="1" source="MxC2BdAEAgkzhx6BI11L-128" target="MxC2BdAEAgkzhx6BI11L-24">
          <mxGeometry width="160" relative="1" as="geometry">
            <mxPoint x="1682" y="-92" as="sourcePoint" />
            <mxPoint x="1842" y="-92" as="targetPoint" />
          </mxGeometry>
        </mxCell>
        <mxCell id="MxC2BdAEAgkzhx6BI11L-133" value="Text" style="swimlane;fontStyle=1;align=center;verticalAlign=top;childLayout=stackLayout;horizontal=1;startSize=26;horizontalStack=0;resizeParent=1;resizeParentMax=0;resizeLast=0;collapsible=1;marginBottom=0;whiteSpace=wrap;html=1;" vertex="1" parent="1">
          <mxGeometry x="1120" y="840" width="230" height="212" as="geometry" />
        </mxCell>
        <mxCell id="MxC2BdAEAgkzhx6BI11L-134" value="+ m_left: double" style="text;strokeColor=none;fillColor=none;align=left;verticalAlign=top;spacingLeft=4;spacingRight=4;overflow=hidden;rotatable=0;points=[[0,0.5],[1,0.5]];portConstraint=eastwest;whiteSpace=wrap;html=1;" vertex="1" parent="MxC2BdAEAgkzhx6BI11L-133">
          <mxGeometry y="26" width="230" height="22" as="geometry" />
        </mxCell>
        <mxCell id="MxC2BdAEAgkzhx6BI11L-135" value="+ m_top: double" style="text;strokeColor=none;fillColor=none;align=left;verticalAlign=top;spacingLeft=4;spacingRight=4;overflow=hidden;rotatable=0;points=[[0,0.5],[1,0.5]];portConstraint=eastwest;whiteSpace=wrap;html=1;" vertex="1" parent="MxC2BdAEAgkzhx6BI11L-133">
          <mxGeometry y="48" width="230" height="26" as="geometry" />
        </mxCell>
        <mxCell id="MxC2BdAEAgkzhx6BI11L-136" value="+ m_size: double" style="text;strokeColor=none;fillColor=none;align=left;verticalAlign=top;spacingLeft=4;spacingRight=4;overflow=hidden;rotatable=0;points=[[0,0.5],[1,0.5]];portConstraint=eastwest;whiteSpace=wrap;html=1;" vertex="1" parent="MxC2BdAEAgkzhx6BI11L-133">
          <mxGeometry y="74" width="230" height="26" as="geometry" />
        </mxCell>
        <mxCell id="MxC2BdAEAgkzhx6BI11L-141" value="+ m_text: string" style="text;strokeColor=none;fillColor=none;align=left;verticalAlign=top;spacingLeft=4;spacingRight=4;overflow=hidden;rotatable=0;points=[[0,0.5],[1,0.5]];portConstraint=eastwest;whiteSpace=wrap;html=1;" vertex="1" parent="MxC2BdAEAgkzhx6BI11L-133">
          <mxGeometry y="100" width="230" height="26" as="geometry" />
        </mxCell>
        <mxCell id="MxC2BdAEAgkzhx6BI11L-137" value="" style="line;strokeWidth=1;fillColor=none;align=left;verticalAlign=middle;spacingTop=-1;spacingLeft=3;spacingRight=3;rotatable=0;labelPosition=right;points=[];portConstraint=eastwest;strokeColor=inherit;" vertex="1" parent="MxC2BdAEAgkzhx6BI11L-133">
          <mxGeometry y="126" width="230" height="8" as="geometry" />
        </mxCell>
        <mxCell id="MxC2BdAEAgkzhx6BI11L-138" value="+ Draw(CCanvas canvas)" style="text;strokeColor=none;fillColor=none;align=left;verticalAlign=top;spacingLeft=4;spacingRight=4;overflow=hidden;rotatable=0;points=[[0,0.5],[1,0.5]];portConstraint=eastwest;whiteSpace=wrap;html=1;" vertex="1" parent="MxC2BdAEAgkzhx6BI11L-133">
          <mxGeometry y="134" width="230" height="26" as="geometry" />
        </mxCell>
        <mxCell id="MxC2BdAEAgkzhx6BI11L-139" value="+ AppendProperties(ostream strm)" style="text;strokeColor=none;fillColor=none;align=left;verticalAlign=top;spacingLeft=4;spacingRight=4;overflow=hidden;rotatable=0;points=[[0,0.5],[1,0.5]];portConstraint=eastwest;whiteSpace=wrap;html=1;" vertex="1" parent="MxC2BdAEAgkzhx6BI11L-133">
          <mxGeometry y="160" width="230" height="26" as="geometry" />
        </mxCell>
        <mxCell id="MxC2BdAEAgkzhx6BI11L-140" value="+ MoveShape(double dx, double dy)" style="text;strokeColor=none;fillColor=none;align=left;verticalAlign=top;spacingLeft=4;spacingRight=4;overflow=hidden;rotatable=0;points=[[0,0.5],[1,0.5]];portConstraint=eastwest;whiteSpace=wrap;html=1;" vertex="1" parent="MxC2BdAEAgkzhx6BI11L-133">
          <mxGeometry y="186" width="230" height="26" as="geometry" />
        </mxCell>
        <mxCell id="MxC2BdAEAgkzhx6BI11L-142" value="Extends" style="endArrow=block;endSize=16;endFill=0;html=1;rounded=0;" edge="1" parent="1" source="MxC2BdAEAgkzhx6BI11L-133" target="MxC2BdAEAgkzhx6BI11L-12">
          <mxGeometry width="160" relative="1" as="geometry">
            <mxPoint x="1040" y="660" as="sourcePoint" />
            <mxPoint x="1200" y="660" as="targetPoint" />
          </mxGeometry>
        </mxCell>
        <mxCell id="MxC2BdAEAgkzhx6BI11L-143" value="RectangleDrawingStrategy" style="swimlane;fontStyle=1;align=center;verticalAlign=top;childLayout=stackLayout;horizontal=1;startSize=26;horizontalStack=0;resizeParent=1;resizeParentMax=0;resizeLast=0;collapsible=1;marginBottom=0;whiteSpace=wrap;html=1;" vertex="1" parent="1">
          <mxGeometry x="1920" y="-220" width="350" height="52" as="geometry" />
        </mxCell>
        <mxCell id="MxC2BdAEAgkzhx6BI11L-144" value="+ Draw(CCanvas canvas, VisualObjectInfo objInfo)" style="text;strokeColor=none;fillColor=none;align=left;verticalAlign=top;spacingLeft=4;spacingRight=4;overflow=hidden;rotatable=0;points=[[0,0.5],[1,0.5]];portConstraint=eastwest;whiteSpace=wrap;html=1;" vertex="1" parent="MxC2BdAEAgkzhx6BI11L-143">
          <mxGeometry y="26" width="350" height="26" as="geometry" />
        </mxCell>
        <mxCell id="MxC2BdAEAgkzhx6BI11L-145" value="" style="endArrow=block;dashed=1;endFill=0;endSize=12;html=1;rounded=0;" edge="1" parent="1" source="MxC2BdAEAgkzhx6BI11L-143" target="MxC2BdAEAgkzhx6BI11L-24">
          <mxGeometry width="160" relative="1" as="geometry">
            <mxPoint x="1852" y="-22" as="sourcePoint" />
            <mxPoint x="2012" y="-22" as="targetPoint" />
          </mxGeometry>
        </mxCell>
        <mxCell id="MxC2BdAEAgkzhx6BI11L-146" value="Triangle" style="swimlane;fontStyle=1;align=center;verticalAlign=top;childLayout=stackLayout;horizontal=1;startSize=26;horizontalStack=0;resizeParent=1;resizeParentMax=0;resizeLast=0;collapsible=1;marginBottom=0;whiteSpace=wrap;html=1;" vertex="1" parent="1">
          <mxGeometry x="840" y="788" width="230" height="264" as="geometry" />
        </mxCell>
        <mxCell id="MxC2BdAEAgkzhx6BI11L-147" value="+ m_x1: double" style="text;strokeColor=none;fillColor=none;align=left;verticalAlign=top;spacingLeft=4;spacingRight=4;overflow=hidden;rotatable=0;points=[[0,0.5],[1,0.5]];portConstraint=eastwest;whiteSpace=wrap;html=1;" vertex="1" parent="MxC2BdAEAgkzhx6BI11L-146">
          <mxGeometry y="26" width="230" height="22" as="geometry" />
        </mxCell>
        <mxCell id="MxC2BdAEAgkzhx6BI11L-148" value="+ m_y1: double" style="text;strokeColor=none;fillColor=none;align=left;verticalAlign=top;spacingLeft=4;spacingRight=4;overflow=hidden;rotatable=0;points=[[0,0.5],[1,0.5]];portConstraint=eastwest;whiteSpace=wrap;html=1;" vertex="1" parent="MxC2BdAEAgkzhx6BI11L-146">
          <mxGeometry y="48" width="230" height="26" as="geometry" />
        </mxCell>
        <mxCell id="MxC2BdAEAgkzhx6BI11L-149" value="+ m_x2: double" style="text;strokeColor=none;fillColor=none;align=left;verticalAlign=top;spacingLeft=4;spacingRight=4;overflow=hidden;rotatable=0;points=[[0,0.5],[1,0.5]];portConstraint=eastwest;whiteSpace=wrap;html=1;" vertex="1" parent="MxC2BdAEAgkzhx6BI11L-146">
          <mxGeometry y="74" width="230" height="26" as="geometry" />
        </mxCell>
        <mxCell id="MxC2BdAEAgkzhx6BI11L-150" value="+ m_y2: double" style="text;strokeColor=none;fillColor=none;align=left;verticalAlign=top;spacingLeft=4;spacingRight=4;overflow=hidden;rotatable=0;points=[[0,0.5],[1,0.5]];portConstraint=eastwest;whiteSpace=wrap;html=1;" vertex="1" parent="MxC2BdAEAgkzhx6BI11L-146">
          <mxGeometry y="100" width="230" height="26" as="geometry" />
        </mxCell>
        <mxCell id="MxC2BdAEAgkzhx6BI11L-155" value="+ m_x3: double" style="text;strokeColor=none;fillColor=none;align=left;verticalAlign=top;spacingLeft=4;spacingRight=4;overflow=hidden;rotatable=0;points=[[0,0.5],[1,0.5]];portConstraint=eastwest;whiteSpace=wrap;html=1;" vertex="1" parent="MxC2BdAEAgkzhx6BI11L-146">
          <mxGeometry y="126" width="230" height="26" as="geometry" />
        </mxCell>
        <mxCell id="MxC2BdAEAgkzhx6BI11L-156" value="+ m_y3: double" style="text;strokeColor=none;fillColor=none;align=left;verticalAlign=top;spacingLeft=4;spacingRight=4;overflow=hidden;rotatable=0;points=[[0,0.5],[1,0.5]];portConstraint=eastwest;whiteSpace=wrap;html=1;" vertex="1" parent="MxC2BdAEAgkzhx6BI11L-146">
          <mxGeometry y="152" width="230" height="26" as="geometry" />
        </mxCell>
        <mxCell id="MxC2BdAEAgkzhx6BI11L-151" value="" style="line;strokeWidth=1;fillColor=none;align=left;verticalAlign=middle;spacingTop=-1;spacingLeft=3;spacingRight=3;rotatable=0;labelPosition=right;points=[];portConstraint=eastwest;strokeColor=inherit;" vertex="1" parent="MxC2BdAEAgkzhx6BI11L-146">
          <mxGeometry y="178" width="230" height="8" as="geometry" />
        </mxCell>
        <mxCell id="MxC2BdAEAgkzhx6BI11L-152" value="+ Draw(CCanvas canvas)" style="text;strokeColor=none;fillColor=none;align=left;verticalAlign=top;spacingLeft=4;spacingRight=4;overflow=hidden;rotatable=0;points=[[0,0.5],[1,0.5]];portConstraint=eastwest;whiteSpace=wrap;html=1;" vertex="1" parent="MxC2BdAEAgkzhx6BI11L-146">
          <mxGeometry y="186" width="230" height="26" as="geometry" />
        </mxCell>
        <mxCell id="MxC2BdAEAgkzhx6BI11L-153" value="+ AppendProperties(ostream strm)" style="text;strokeColor=none;fillColor=none;align=left;verticalAlign=top;spacingLeft=4;spacingRight=4;overflow=hidden;rotatable=0;points=[[0,0.5],[1,0.5]];portConstraint=eastwest;whiteSpace=wrap;html=1;" vertex="1" parent="MxC2BdAEAgkzhx6BI11L-146">
          <mxGeometry y="212" width="230" height="26" as="geometry" />
        </mxCell>
        <mxCell id="MxC2BdAEAgkzhx6BI11L-154" value="+ MoveShape(double dx, double dy)" style="text;strokeColor=none;fillColor=none;align=left;verticalAlign=top;spacingLeft=4;spacingRight=4;overflow=hidden;rotatable=0;points=[[0,0.5],[1,0.5]];portConstraint=eastwest;whiteSpace=wrap;html=1;" vertex="1" parent="MxC2BdAEAgkzhx6BI11L-146">
          <mxGeometry y="238" width="230" height="26" as="geometry" />
        </mxCell>
        <mxCell id="MxC2BdAEAgkzhx6BI11L-157" value="Extends" style="endArrow=block;endSize=16;endFill=0;html=1;rounded=0;" edge="1" parent="1" source="MxC2BdAEAgkzhx6BI11L-146" target="MxC2BdAEAgkzhx6BI11L-12">
          <mxGeometry width="160" relative="1" as="geometry">
            <mxPoint x="1110" y="550" as="sourcePoint" />
            <mxPoint x="1270" y="550" as="targetPoint" />
          </mxGeometry>
        </mxCell>
        <mxCell id="MxC2BdAEAgkzhx6BI11L-158" value="TriangleDrawingStrategy" style="swimlane;fontStyle=1;align=center;verticalAlign=top;childLayout=stackLayout;horizontal=1;startSize=26;horizontalStack=0;resizeParent=1;resizeParentMax=0;resizeLast=0;collapsible=1;marginBottom=0;whiteSpace=wrap;html=1;" vertex="1" parent="1">
          <mxGeometry x="1920" y="-330" width="350" height="52" as="geometry" />
        </mxCell>
        <mxCell id="MxC2BdAEAgkzhx6BI11L-159" value="+ Draw(CCanvas canvas, VisualObjectInfo objInfo)" style="text;strokeColor=none;fillColor=none;align=left;verticalAlign=top;spacingLeft=4;spacingRight=4;overflow=hidden;rotatable=0;points=[[0,0.5],[1,0.5]];portConstraint=eastwest;whiteSpace=wrap;html=1;" vertex="1" parent="MxC2BdAEAgkzhx6BI11L-158">
          <mxGeometry y="26" width="350" height="26" as="geometry" />
        </mxCell>
        <mxCell id="MxC2BdAEAgkzhx6BI11L-160" value="" style="endArrow=block;dashed=1;endFill=0;endSize=12;html=1;rounded=0;" edge="1" parent="1" source="MxC2BdAEAgkzhx6BI11L-158" target="MxC2BdAEAgkzhx6BI11L-24">
          <mxGeometry width="160" relative="1" as="geometry">
            <mxPoint x="2090" y="-147.82080924855518" as="sourcePoint" />
            <mxPoint x="2132" y="-112" as="targetPoint" />
          </mxGeometry>
        </mxCell>
        <mxCell id="MxC2BdAEAgkzhx6BI11L-161" value="" style="endArrow=diamondThin;endFill=0;endSize=24;html=1;rounded=0;" edge="1" parent="1" source="MxC2BdAEAgkzhx6BI11L-12" target="MxC2BdAEAgkzhx6BI11L-2">
          <mxGeometry width="160" relative="1" as="geometry">
            <mxPoint x="450" y="410" as="sourcePoint" />
            <mxPoint x="610" y="410" as="targetPoint" />
          </mxGeometry>
        </mxCell>
        <mxCell id="MxC2BdAEAgkzhx6BI11L-163" value="Use" style="endArrow=open;endSize=12;dashed=1;html=1;rounded=0;" edge="1" parent="1" source="MxC2BdAEAgkzhx6BI11L-24" target="MxC2BdAEAgkzhx6BI11L-25">
          <mxGeometry width="160" relative="1" as="geometry">
            <mxPoint x="1770" y="430" as="sourcePoint" />
            <mxPoint x="1930" y="430" as="targetPoint" />
          </mxGeometry>
        </mxCell>
        <mxCell id="MxC2BdAEAgkzhx6BI11L-164" value="Use" style="endArrow=open;endSize=12;dashed=1;html=1;rounded=0;" edge="1" parent="1" source="MxC2BdAEAgkzhx6BI11L-24" target="MxC2BdAEAgkzhx6BI11L-50">
          <mxGeometry width="160" relative="1" as="geometry">
            <mxPoint x="1520" y="270" as="sourcePoint" />
            <mxPoint x="1680" y="270" as="targetPoint" />
          </mxGeometry>
        </mxCell>
        <mxCell id="MxC2BdAEAgkzhx6BI11L-165" value="" style="endArrow=diamondThin;endFill=0;endSize=24;html=1;rounded=0;" edge="1" parent="1" source="MxC2BdAEAgkzhx6BI11L-33" target="MxC2BdAEAgkzhx6BI11L-25">
          <mxGeometry width="160" relative="1" as="geometry">
            <mxPoint x="1570" y="-430" as="sourcePoint" />
            <mxPoint x="1730" y="-430" as="targetPoint" />
          </mxGeometry>
        </mxCell>
        <mxCell id="MxC2BdAEAgkzhx6BI11L-166" value="" style="endArrow=diamondThin;endFill=0;endSize=24;html=1;rounded=0;" edge="1" parent="1" source="MxC2BdAEAgkzhx6BI11L-2" target="MxC2BdAEAgkzhx6BI11L-100">
          <mxGeometry width="160" relative="1" as="geometry">
            <mxPoint x="450" y="680" as="sourcePoint" />
            <mxPoint x="610" y="680" as="targetPoint" />
          </mxGeometry>
        </mxCell>
        <mxCell id="MxC2BdAEAgkzhx6BI11L-172" value="" style="endArrow=diamondThin;endFill=0;endSize=24;html=1;rounded=0;" edge="1" parent="1" source="MxC2BdAEAgkzhx6BI11L-24" target="MxC2BdAEAgkzhx6BI11L-12">
          <mxGeometry width="160" relative="1" as="geometry">
            <mxPoint x="1490" y="1260" as="sourcePoint" />
            <mxPoint x="1650" y="1260" as="targetPoint" />
          </mxGeometry>
        </mxCell>
        <mxCell id="MxC2BdAEAgkzhx6BI11L-173" value="Use" style="endArrow=open;endSize=12;dashed=1;html=1;rounded=0;" edge="1" parent="1" source="MxC2BdAEAgkzhx6BI11L-12" target="MxC2BdAEAgkzhx6BI11L-50">
          <mxGeometry width="160" relative="1" as="geometry">
            <mxPoint x="1180" y="220" as="sourcePoint" />
            <mxPoint x="1340" y="220" as="targetPoint" />
          </mxGeometry>
        </mxCell>
      </root>
    </mxGraphModel>
  </diagram>
</mxfile>
